<?xml version="1.0" standalone="no"?><svg xmlns="http://www.w3.org/2000/svg" viewBox="0 0 1440 320"><path fill="#100B32" fill-opacity="0.5" d="M0,96L30,128C60,160,120,224,180,240C240,256,300,224,360,197.3C420,171,480,149,540,149.3C600,149,660,171,720,154.7C780,139,840,85,900,64C960,43,1020,53,1080,85.3C1140,117,1200,171,1260,165.3C1320,160,1380,96,1410,64L1440,32L1440,320L1410,320C1380,320,1320,320,1260,320C1200,320,1140,320,1080,320C1020,320,960,320,900,320C840,320,780,320,720,320C660,320,600,320,540,320C480,320,420,320,360,320C300,320,240,320,180,320C120,320,60,320,30,320L0,320Z"></path></svg>