<?xml version="1.0" standalone="no"?><svg xmlns="http://www.w3.org/2000/svg" viewBox="0 0 1440 320"><path fill="#504981" fill-opacity="1" d="M0,96L26.7,90.7C53.3,85,107,75,160,85.3C213.3,96,267,128,320,165.3C373.3,203,427,245,480,234.7C533.3,224,587,160,640,154.7C693.3,149,747,203,800,234.7C853.3,267,907,277,960,261.3C1013.3,245,1067,203,1120,186.7C1173.3,171,1227,181,1280,154.7C1333.3,128,1387,64,1413,32L1440,0L1440,320L1413.3,320C1386.7,320,1333,320,1280,320C1226.7,320,1173,320,1120,320C1066.7,320,1013,320,960,320C906.7,320,853,320,800,320C746.7,320,693,320,640,320C586.7,320,533,320,480,320C426.7,320,373,320,320,320C266.7,320,213,320,160,320C106.7,320,53,320,27,320L0,320Z"></path></svg>