<?xml version="1.0" standalone="no"?><svg xmlns="http://www.w3.org/2000/svg" viewBox="0 0 1440 320"><path fill="#191F46" fill-opacity="1" d="M0,192L40,202.7C80,213,160,235,240,218.7C320,203,400,149,480,138.7C560,128,640,160,720,170.7C800,181,880,171,960,154.7C1040,139,1120,117,1200,117.3C1280,117,1360,139,1400,149.3L1440,160L1440,320L1400,320C1360,320,1280,320,1200,320C1120,320,1040,320,960,320C880,320,800,320,720,320C640,320,560,320,480,320C400,320,320,320,240,320C160,320,80,320,40,320L0,320Z"></path></svg>