<?xml version="1.0" standalone="no"?><svg xmlns="http://www.w3.org/2000/svg" viewBox="0 0 1440 320"><path fill="#1D1C3D" fill-opacity="1" d="M0,192L12.6,202.7C25.3,213,51,235,76,229.3C101.1,224,126,192,152,197.3C176.8,203,202,245,227,245.3C252.6,245,278,203,303,170.7C328.4,139,354,117,379,112C404.2,107,429,117,455,154.7C480,192,505,256,531,261.3C555.8,267,581,213,606,160C631.6,107,657,53,682,69.3C707.4,85,733,171,758,213.3C783.2,256,808,256,834,224C858.9,192,884,128,909,128C934.7,128,960,192,985,197.3C1010.5,203,1036,149,1061,138.7C1086.3,128,1112,160,1137,165.3C1162.1,171,1187,149,1213,149.3C1237.9,149,1263,171,1288,197.3C1313.7,224,1339,256,1364,224C1389.5,192,1415,96,1427,48L1440,0L1440,0L1427.4,0C1414.7,0,1389,0,1364,0C1338.9,0,1314,0,1288,0C1263.2,0,1238,0,1213,0C1187.4,0,1162,0,1137,0C1111.6,0,1086,0,1061,0C1035.8,0,1011,0,985,0C960,0,935,0,909,0C884.2,0,859,0,834,0C808.4,0,783,0,758,0C732.6,0,707,0,682,0C656.8,0,632,0,606,0C581.1,0,556,0,531,0C505.3,0,480,0,455,0C429.5,0,404,0,379,0C353.7,0,328,0,303,0C277.9,0,253,0,227,0C202.1,0,177,0,152,0C126.3,0,101,0,76,0C50.5,0,25,0,13,0L0,0Z"></path></svg>