<?xml version="1.0" standalone="no"?><svg xmlns="http://www.w3.org/2000/svg" viewBox="0 0 1440 320"><path fill="#1D1C3D" fill-opacity="1" d="M0,192L26.7,197.3C53.3,203,107,213,160,192C213.3,171,267,117,320,122.7C373.3,128,427,192,480,234.7C533.3,277,587,299,640,261.3C693.3,224,747,128,800,96C853.3,64,907,96,960,138.7C1013.3,181,1067,235,1120,245.3C1173.3,256,1227,224,1280,202.7C1333.3,181,1387,171,1413,165.3L1440,160L1440,0L1413.3,0C1386.7,0,1333,0,1280,0C1226.7,0,1173,0,1120,0C1066.7,0,1013,0,960,0C906.7,0,853,0,800,0C746.7,0,693,0,640,0C586.7,0,533,0,480,0C426.7,0,373,0,320,0C266.7,0,213,0,160,0C106.7,0,53,0,27,0L0,0Z"></path></svg>